<svg width="95" height="24" viewBox="0 0 95 24" fill="none" xmlns="http://www.w3.org/2000/svg">
<path d="M15.375 18.376H14.4L8.625 7.54785V18.376H7.875V6.37598H8.85L14.625 17.2041V6.37598H15.375V18.376Z" fill="black"/>
<path d="M6.37488 10.876H16.8749V11.626H6.37488V10.876Z" fill="black"/>
<path d="M6.37488 13.126H16.8749V13.876H6.37488V13.126Z" fill="black"/>
<path d="M32.2224 17.1591C31.5103 17.1591 30.8702 17.0227 30.302 16.75C29.7376 16.4735 29.2868 16.0947 28.9497 15.6136C28.6126 15.1326 28.4327 14.5833 28.4099 13.9659H30.1145C30.1561 14.4659 30.3777 14.8769 30.7793 15.1989C31.1808 15.5208 31.6618 15.6818 32.2224 15.6818C32.6694 15.6818 33.0652 15.5795 33.4099 15.375C33.7584 15.1667 34.0311 14.8807 34.2281 14.517C34.4289 14.1534 34.5293 13.7386 34.5293 13.2727C34.5293 12.7992 34.427 12.3769 34.2224 12.0057C34.0179 11.6345 33.7357 11.3428 33.3758 11.1307C33.0198 10.9186 32.6107 10.8106 32.1486 10.8068C31.7963 10.8068 31.4421 10.8674 31.0861 10.9886C30.73 11.1098 30.4421 11.2689 30.2224 11.4659L28.6145 11.2273L29.2679 5.36364H35.6656V6.86932H30.7281L30.3588 10.125H30.427C30.6543 9.9053 30.9554 9.72159 31.3304 9.57386C31.7092 9.42614 32.1145 9.35227 32.5463 9.35227C33.2546 9.35227 33.8853 9.52083 34.4383 9.85795C34.9952 10.1951 35.4327 10.6553 35.7508 11.2386C36.0728 11.8182 36.2319 12.4848 36.2281 13.2386C36.2319 13.9924 36.0614 14.6648 35.7168 15.2557C35.3758 15.8466 34.9024 16.3125 34.2963 16.6534C33.694 16.9905 33.0027 17.1591 32.2224 17.1591ZM42.5045 17.1932C41.6068 17.1894 40.8398 16.9527 40.2034 16.483C39.567 16.0133 39.0803 15.3295 38.7432 14.4318C38.4061 13.5341 38.2375 12.4527 38.2375 11.1875C38.2375 9.92614 38.4061 8.84848 38.7432 7.95455C39.0841 7.06061 39.5727 6.37879 40.2091 5.90909C40.8492 5.43939 41.6144 5.20455 42.5045 5.20455C43.3947 5.20455 44.1579 5.44129 44.7943 5.91477C45.4307 6.38447 45.9174 7.06629 46.2545 7.96023C46.5954 8.85038 46.7659 9.92614 46.7659 11.1875C46.7659 12.4564 46.5973 13.5398 46.2602 14.4375C45.9231 15.3314 45.4364 16.0152 44.8 16.4886C44.1636 16.9583 43.3985 17.1932 42.5045 17.1932ZM42.5045 15.6761C43.2924 15.6761 43.9079 15.2917 44.3511 14.5227C44.7981 13.7538 45.0216 12.642 45.0216 11.1875C45.0216 10.2216 44.9193 9.4053 44.7148 8.73864C44.514 8.06818 44.2242 7.56061 43.8454 7.21591C43.4704 6.86742 43.0235 6.69318 42.5045 6.69318C41.7204 6.69318 41.1049 7.07954 40.6579 7.85227C40.211 8.625 39.9856 9.73674 39.9818 11.1875C39.9818 12.1572 40.0822 12.9773 40.2829 13.6477C40.4875 14.3144 40.7773 14.8201 41.1523 15.1648C41.5273 15.5057 41.978 15.6761 42.5045 15.6761ZM52.9827 17.1932C52.0849 17.1894 51.3179 16.9527 50.6815 16.483C50.0452 16.0133 49.5584 15.3295 49.2213 14.4318C48.8842 13.5341 48.7156 12.4527 48.7156 11.1875C48.7156 9.92614 48.8842 8.84848 49.2213 7.95455C49.5622 7.06061 50.0508 6.37879 50.6872 5.90909C51.3274 5.43939 52.0925 5.20455 52.9827 5.20455C53.8728 5.20455 54.6361 5.44129 55.2724 5.91477C55.9088 6.38447 56.3955 7.06629 56.7327 7.96023C57.0736 8.85038 57.244 9.92614 57.244 11.1875C57.244 12.4564 57.0755 13.5398 56.7383 14.4375C56.4012 15.3314 55.9145 16.0152 55.2781 16.4886C54.6418 16.9583 53.8766 17.1932 52.9827 17.1932ZM52.9827 15.6761C53.7705 15.6761 54.3861 15.2917 54.8293 14.5227C55.2762 13.7538 55.4997 12.642 55.4997 11.1875C55.4997 10.2216 55.3974 9.4053 55.1929 8.73864C54.9921 8.06818 54.7024 7.56061 54.3236 7.21591C53.9486 6.86742 53.5016 6.69318 52.9827 6.69318C52.1986 6.69318 51.583 7.07954 51.1361 7.85227C50.6891 8.625 50.4637 9.73674 50.4599 11.1875C50.4599 12.1572 50.5603 12.9773 50.7611 13.6477C50.9656 14.3144 51.2554 14.8201 51.6304 15.1648C52.0054 15.5057 52.4561 15.6761 52.9827 15.6761ZM61.2207 15.4091L61.1355 16.0284C61.0787 16.483 60.9821 16.9564 60.8457 17.4489C60.7132 17.9451 60.5749 18.4053 60.431 18.8295C60.2908 19.2538 60.1753 19.5909 60.0844 19.8409H58.8798C58.9291 19.6061 58.9972 19.2879 59.0844 18.8864C59.1715 18.4886 59.2567 18.0436 59.34 17.5511C59.4234 17.0587 59.4859 16.5568 59.5275 16.0455L59.5844 15.4091H61.2207ZM67.3764 17.1932C66.4787 17.1894 65.7116 16.9527 65.0753 16.483C64.4389 16.0133 63.9522 15.3295 63.615 14.4318C63.2779 13.5341 63.1094 12.4527 63.1094 11.1875C63.1094 9.92614 63.2779 8.84848 63.615 7.95455C63.956 7.06061 64.4446 6.37879 65.081 5.90909C65.7211 5.43939 66.4863 5.20455 67.3764 5.20455C68.2666 5.20455 69.0298 5.44129 69.6662 5.91477C70.3025 6.38447 70.7893 7.06629 71.1264 7.96023C71.4673 8.85038 71.6378 9.92614 71.6378 11.1875C71.6378 12.4564 71.4692 13.5398 71.1321 14.4375C70.795 15.3314 70.3082 16.0152 69.6719 16.4886C69.0355 16.9583 68.2703 17.1932 67.3764 17.1932ZM67.3764 15.6761C68.1643 15.6761 68.7798 15.2917 69.223 14.5227C69.67 13.7538 69.8935 12.642 69.8935 11.1875C69.8935 10.2216 69.7912 9.4053 69.5866 8.73864C69.3859 8.06818 69.0961 7.56061 68.7173 7.21591C68.3423 6.86742 67.8953 6.69318 67.3764 6.69318C66.5923 6.69318 65.9768 7.07954 65.5298 7.85227C65.0828 8.625 64.8575 9.73674 64.8537 11.1875C64.8537 12.1572 64.9541 12.9773 65.1548 13.6477C65.3594 14.3144 65.6491 14.8201 66.0241 15.1648C66.3991 15.5057 66.8499 15.6761 67.3764 15.6761ZM77.8545 17.1932C76.9568 17.1894 76.1898 16.9527 75.5534 16.483C74.917 16.0133 74.4303 15.3295 74.0932 14.4318C73.7561 13.5341 73.5875 12.4527 73.5875 11.1875C73.5875 9.92614 73.7561 8.84848 74.0932 7.95455C74.4341 7.06061 74.9227 6.37879 75.5591 5.90909C76.1992 5.43939 76.9644 5.20455 77.8545 5.20455C78.7447 5.20455 79.5079 5.44129 80.1443 5.91477C80.7807 6.38447 81.2674 7.06629 81.6045 7.96023C81.9454 8.85038 82.1159 9.92614 82.1159 11.1875C82.1159 12.4564 81.9473 13.5398 81.6102 14.4375C81.2731 15.3314 80.7864 16.0152 80.15 16.4886C79.5136 16.9583 78.7485 17.1932 77.8545 17.1932ZM77.8545 15.6761C78.6424 15.6761 79.2579 15.2917 79.7011 14.5227C80.1481 13.7538 80.3716 12.642 80.3716 11.1875C80.3716 10.2216 80.2693 9.4053 80.0648 8.73864C79.864 8.06818 79.5742 7.56061 79.1954 7.21591C78.8204 6.86742 78.3735 6.69318 77.8545 6.69318C77.0704 6.69318 76.4549 7.07954 76.0079 7.85227C75.561 8.625 75.3356 9.73674 75.3318 11.1875C75.3318 12.1572 75.4322 12.9773 75.6329 13.6477C75.8375 14.3144 76.1273 14.8201 76.5023 15.1648C76.8773 15.5057 77.328 15.6761 77.8545 15.6761ZM88.3327 17.1932C87.4349 17.1894 86.6679 16.9527 86.0315 16.483C85.3952 16.0133 84.9084 15.3295 84.5713 14.4318C84.2342 13.5341 84.0656 12.4527 84.0656 11.1875C84.0656 9.92614 84.2342 8.84848 84.5713 7.95455C84.9122 7.06061 85.4008 6.37879 86.0372 5.90909C86.6774 5.43939 87.4425 5.20455 88.3327 5.20455C89.2228 5.20455 89.9861 5.44129 90.6224 5.91477C91.2588 6.38447 91.7455 7.06629 92.0827 7.96023C92.4236 8.85038 92.594 9.92614 92.594 11.1875C92.594 12.4564 92.4255 13.5398 92.0883 14.4375C91.7512 15.3314 91.2645 16.0152 90.6281 16.4886C89.9918 16.9583 89.2266 17.1932 88.3327 17.1932ZM88.3327 15.6761C89.1205 15.6761 89.7361 15.2917 90.1793 14.5227C90.6262 13.7538 90.8497 12.642 90.8497 11.1875C90.8497 10.2216 90.7474 9.4053 90.5429 8.73864C90.3421 8.06818 90.0524 7.56061 89.6736 7.21591C89.2986 6.86742 88.8516 6.69318 88.3327 6.69318C87.5486 6.69318 86.933 7.07954 86.4861 7.85227C86.0391 8.625 85.8137 9.73674 85.8099 11.1875C85.8099 12.1572 85.9103 12.9773 86.1111 13.6477C86.3156 14.3144 86.6054 14.8201 86.9804 15.1648C87.3554 15.5057 87.8061 15.6761 88.3327 15.6761Z" fill="#344054"/>
</svg>
