<svg width="118" height="81" viewBox="0 0 118 81" fill="none" xmlns="http://www.w3.org/2000/svg">
<g clip-path="url(#clip0_79_1451)">
<path d="M70.5208 15.3321V6.60921H65.5833V10.8884L59 4.96338L42.5416 19.7759H47.4791V32.9425H55.7083V23.0675H62.2916V32.9425H70.5208V19.7759H75.4583L70.5208 15.3321ZM55.7083 16.4842C55.7083 14.6738 57.1895 13.1925 59 13.1925C60.8104 13.1925 62.2916 14.6738 62.2916 16.4842H55.7083Z" fill="#3538CD"/>
</g>
<path d="M24.4318 51.4553H20.7104V48.9626C20.7104 48.2377 20.6691 47.7869 20.5866 47.6101C20.51 47.4274 20.3362 47.3361 20.0651 47.3361C19.7586 47.3361 19.5642 47.4451 19.4817 47.6632C19.3992 47.8812 19.3579 48.3527 19.3579 49.0775V55.7249C19.3579 56.4202 19.3992 56.874 19.4817 57.0862C19.5642 57.2983 19.7498 57.4044 20.0386 57.4044C20.3155 57.4044 20.4953 57.2983 20.5778 57.0862C20.6662 56.874 20.7104 56.376 20.7104 55.5923V53.7978H24.4318V54.3547C24.4318 55.8339 24.3258 56.8828 24.1136 57.5016C23.9073 58.1204 23.4447 58.6625 22.7258 59.1281C22.0127 59.5936 21.1317 59.8264 20.0828 59.8264C18.9925 59.8264 18.0939 59.629 17.3867 59.2342C16.6795 58.8393 16.211 58.2942 15.9812 57.5989C15.7514 56.8976 15.6364 55.8457 15.6364 54.4431V50.262C15.6364 49.2307 15.6718 48.4587 15.7425 47.946C15.8132 47.4274 16.0224 46.9295 16.3701 46.4521C16.7237 45.9748 17.2099 45.6006 17.8287 45.3295C18.4533 45.0525 19.1693 44.9141 19.9767 44.9141C21.0728 44.9141 21.9774 45.1262 22.6904 45.5505C23.4035 45.9748 23.872 46.5052 24.0959 47.1416C24.3199 47.7722 24.4318 48.7563 24.4318 50.0941V51.4553ZM29.3378 45.2146V59.5259H25.6605V45.2146H29.3378ZM38.7077 51.915V54.7879C38.7077 55.8427 38.6547 56.6177 38.5486 57.1127C38.4426 57.6018 38.2157 58.0615 37.868 58.4916C37.5203 58.9159 37.0724 59.2312 36.5244 59.4375C35.9822 59.6378 35.3575 59.738 34.6504 59.738C33.8607 59.738 33.1918 59.6526 32.6438 59.4817C32.0957 59.3049 31.6685 59.0426 31.3621 58.695C31.0615 58.3414 30.8464 57.9171 30.7168 57.4221C30.5871 56.9212 30.5223 56.1727 30.5223 55.1768V52.1714C30.5223 51.0811 30.6402 50.2296 30.8759 49.6167C31.1116 49.0038 31.5359 48.5118 32.1488 48.1405C32.7617 47.7692 33.5454 47.5836 34.5001 47.5836C35.3016 47.5836 35.9881 47.7044 36.5597 47.946C37.1372 48.1818 37.5822 48.4911 37.8945 48.8742C38.2068 49.2572 38.419 49.6521 38.5309 50.0587C38.6488 50.4653 38.7077 51.0841 38.7077 51.915ZM35.1366 51.031C35.1366 50.43 35.1041 50.0528 35.0393 49.8996C34.9745 49.7405 34.836 49.6609 34.6239 49.6609C34.4117 49.6609 34.2703 49.7405 34.1996 49.8996C34.1288 50.0528 34.0935 50.43 34.0935 51.031V56.326C34.0935 56.8799 34.1288 57.2423 34.1996 57.4132C34.2703 57.5782 34.4088 57.6607 34.615 57.6607C34.8272 57.6607 34.9657 57.5841 35.0305 57.4309C35.1012 57.2777 35.1366 56.9477 35.1366 56.4409V51.031ZM47.1849 51.5437H44.0203V50.9073C44.0203 50.3651 43.9879 50.0233 43.9231 49.8819C43.8642 49.7346 43.7109 49.6609 43.4634 49.6609C43.2631 49.6609 43.1128 49.7287 43.0126 49.8642C42.9124 49.9939 42.8623 50.1913 42.8623 50.4565C42.8623 50.816 42.8859 51.0811 42.9331 51.252C42.9861 51.417 43.1364 51.5997 43.3839 51.8001C43.6373 52.0005 44.1529 52.2922 44.9308 52.6752C45.968 53.182 46.6486 53.6593 46.9727 54.1072C47.2969 54.5551 47.4589 55.2063 47.4589 56.0608C47.4589 57.0154 47.3352 57.7373 47.0877 58.2265C46.8401 58.7097 46.4247 59.0839 45.8413 59.3491C45.2638 59.6084 44.5654 59.738 43.7463 59.738C42.8388 59.738 42.0609 59.5966 41.4126 59.3137C40.7703 59.0309 40.3283 58.6478 40.0867 58.1646C39.8451 57.6814 39.7243 56.9506 39.7243 55.9724V55.4066H42.8889V56.1492C42.8889 56.7797 42.9272 57.1893 43.0038 57.3779C43.0863 57.5664 43.2454 57.6607 43.4811 57.6607C43.7345 57.6607 43.9113 57.5989 44.0115 57.4751C44.1117 57.3455 44.1618 57.0773 44.1618 56.6707C44.1618 56.1109 44.0969 55.7602 43.9673 55.6188C43.8317 55.4774 43.1393 55.0589 41.89 54.3636C40.841 53.7743 40.2016 53.2409 39.9718 52.7636C39.742 52.2804 39.6271 51.7087 39.6271 51.0487C39.6271 50.1117 39.7508 49.4222 39.9983 48.9803C40.2458 48.5324 40.6642 48.1877 41.2535 47.946C41.8487 47.7044 42.5382 47.5836 43.322 47.5836C44.0999 47.5836 44.7599 47.6838 45.3021 47.8842C45.8501 48.0786 46.2685 48.3379 46.5573 48.662C46.8519 48.9862 47.0287 49.2867 47.0877 49.5637C47.1525 49.8407 47.1849 50.2738 47.1849 50.8631V51.5437ZM56.5018 53.8686H51.8787V56.4055C51.8787 56.9359 51.917 57.2777 51.9936 57.4309C52.0702 57.5841 52.2176 57.6607 52.4356 57.6607C52.7067 57.6607 52.8864 57.5605 52.9748 57.3602C53.0691 57.1539 53.1162 56.7591 53.1162 56.1757V54.6288H56.5018V55.495C56.5018 56.2199 56.4547 56.7768 56.3604 57.1657C56.272 57.5547 56.0598 57.9701 55.7239 58.4121C55.388 58.8541 54.9608 59.187 54.4422 59.411C53.9295 59.629 53.2842 59.738 52.5063 59.738C51.752 59.738 51.0861 59.629 50.5086 59.411C49.9311 59.1929 49.4802 58.8953 49.1561 58.5182C48.8379 58.1351 48.6169 57.7167 48.4931 57.2629C48.3694 56.8033 48.3075 56.1374 48.3075 55.2652V51.8443C48.3075 50.8189 48.446 50.0116 48.723 49.4222C48.9999 48.827 49.4537 48.3733 50.0843 48.061C50.7148 47.7427 51.4397 47.5836 52.2588 47.5836C53.2606 47.5836 54.0857 47.7751 54.7339 48.1582C55.388 48.5353 55.8447 49.0392 56.104 49.6698C56.3692 50.2944 56.5018 51.1754 56.5018 52.3128V53.8686ZM52.9218 51.9592V51.1018C52.9218 50.4948 52.8894 50.1029 52.8245 49.9261C52.7597 49.7493 52.6271 49.6609 52.4268 49.6609C52.1792 49.6609 52.026 49.7375 51.9671 49.8907C51.9082 50.0381 51.8787 50.4417 51.8787 51.1018V51.9592H52.9218Z" fill="black"/>
<path d="M68.8684 49.546H65.4121V48.4853C65.4121 47.9902 65.3679 47.675 65.2795 47.5394C65.1911 47.4039 65.0438 47.3361 64.8375 47.3361C64.6136 47.3361 64.4427 47.4274 64.3248 47.6101C64.2129 47.7928 64.1569 48.0698 64.1569 48.4411C64.1569 48.9184 64.2217 49.2779 64.3513 49.5195C64.4751 49.7611 64.8257 50.0528 65.4033 50.3946C67.0592 51.3787 68.1023 52.1861 68.5325 52.8166C68.9627 53.4472 69.1778 54.4637 69.1778 55.8663C69.1778 56.8858 69.0569 57.6372 68.8153 58.1204C68.5796 58.6036 68.12 59.0102 67.4364 59.3402C66.7528 59.6644 65.9572 59.8264 65.0497 59.8264C64.0537 59.8264 63.2022 59.6378 62.495 59.2607C61.7938 58.8835 61.3341 58.4033 61.1161 57.8198C60.898 57.2364 60.789 56.4085 60.789 55.3359V54.3989H64.2453V56.1403C64.2453 56.6766 64.2924 57.0213 64.3867 57.1746C64.4869 57.3278 64.6607 57.4044 64.9082 57.4044C65.1557 57.4044 65.3384 57.3071 65.4563 57.1127C65.58 56.9182 65.6419 56.6294 65.6419 56.2464C65.6419 55.4037 65.527 54.8527 65.2972 54.5934C65.0615 54.3341 64.481 53.901 63.5558 53.294C62.6306 52.6811 62.0177 52.2362 61.7172 51.9592C61.4166 51.6822 61.1662 51.2992 60.9658 50.8101C60.7713 50.3209 60.6741 49.6963 60.6741 48.9361C60.6741 47.84 60.8126 47.0385 61.0895 46.5317C61.3724 46.0249 61.8262 45.6301 62.4508 45.3472C63.0755 45.0584 63.8298 44.9141 64.7138 44.9141C65.6802 44.9141 66.5023 45.0702 67.18 45.3826C67.8636 45.6949 68.3144 46.0897 68.5325 46.5671C68.7564 47.0385 68.8684 47.8429 68.8684 48.9803V49.546ZM74.013 46.2312V48.0786H74.9765V49.9349H74.013V56.211C74.013 56.983 74.0513 57.4132 74.1279 57.5016C74.2104 57.59 74.5434 57.6342 75.1268 57.6342V59.5259H73.6859C72.8727 59.5259 72.2922 59.4935 71.9445 59.4286C71.5969 59.3579 71.2904 59.2018 71.0252 58.9601C70.76 58.7126 70.595 58.4327 70.5302 58.1204C70.4654 57.8022 70.433 57.0596 70.433 55.8928V49.9349H69.6639V48.0786H70.433V46.2312H74.013ZM83.8514 53.8686H79.2283V56.4055C79.2283 56.9359 79.2667 57.2777 79.3433 57.4309C79.4199 57.5841 79.5672 57.6607 79.7852 57.6607C80.0563 57.6607 80.2361 57.5605 80.3245 57.3602C80.4187 57.1539 80.4659 56.7591 80.4659 56.1757V54.6288H83.8514V55.495C83.8514 56.2199 83.8043 56.7768 83.71 57.1657C83.6216 57.5547 83.4095 57.9701 83.0736 58.4121C82.7377 58.8541 82.3104 59.187 81.7918 59.411C81.2791 59.629 80.6338 59.738 79.856 59.738C79.1016 59.738 78.4357 59.629 77.8582 59.411C77.2807 59.1929 76.8299 58.8953 76.5058 58.5182C76.1875 58.1351 75.9665 57.7167 75.8428 57.2629C75.719 56.8033 75.6572 56.1374 75.6572 55.2652V51.8443C75.6572 50.8189 75.7956 50.0116 76.0726 49.4222C76.3496 48.827 76.8034 48.3733 77.4339 48.061C78.0645 47.7427 78.7893 47.5836 79.6084 47.5836C80.6103 47.5836 81.4353 47.7751 82.0835 48.1582C82.7377 48.5353 83.1944 49.0392 83.4537 49.6698C83.7189 50.2944 83.8514 51.1754 83.8514 52.3128V53.8686ZM80.2714 51.9592V51.1018C80.2714 50.4948 80.239 50.1029 80.1742 49.9261C80.1094 49.7493 79.9768 49.6609 79.7764 49.6609C79.5289 49.6609 79.3757 49.7375 79.3167 49.8907C79.2578 50.0381 79.2283 50.4417 79.2283 51.1018V51.9592H80.2714ZM88.2182 52.3393H84.868V51.5526C84.868 50.6451 84.9711 49.9467 85.1774 49.4576C85.3895 48.9626 85.8109 48.5265 86.4414 48.1493C87.072 47.7722 87.8911 47.5836 88.8988 47.5836C90.1069 47.5836 91.0174 47.7987 91.6303 48.2289C92.2432 48.6532 92.6115 49.1777 92.7352 49.8023C92.859 50.4211 92.9209 51.6999 92.9209 53.6387V59.5259H89.4469V58.4828C89.2289 58.9012 88.946 59.2165 88.5983 59.4286C88.2565 59.6349 87.8469 59.738 87.3696 59.738C86.7449 59.738 86.1704 59.5642 85.6459 59.2165C85.1273 58.8629 84.868 58.0939 84.868 56.9094V55.9459C84.868 55.0678 85.0065 54.4696 85.2835 54.1514C85.5604 53.8332 86.247 53.4619 87.3431 53.0376C88.5158 52.578 89.1434 52.2686 89.2259 52.1095C89.3084 51.9504 89.3497 51.6262 89.3497 51.1371C89.3497 50.5242 89.3025 50.1265 89.2082 49.9438C89.1198 49.7552 88.9696 49.6609 88.7574 49.6609C88.5158 49.6609 88.3655 49.7405 88.3066 49.8996C88.2477 50.0528 88.2182 50.4565 88.2182 51.1106V52.3393ZM89.3497 53.9481C88.778 54.3665 88.4451 54.7172 88.3508 55C88.2624 55.2829 88.2182 55.6895 88.2182 56.2199C88.2182 56.8269 88.2565 57.2187 88.3331 57.3955C88.4156 57.5723 88.5747 57.6607 88.8105 57.6607C89.0344 57.6607 89.1788 57.593 89.2436 57.4574C89.3143 57.316 89.3497 56.9506 89.3497 56.3613V53.9481ZM102.273 45.2146V59.5259H98.7019V58.6773C98.3601 59.0309 98.0007 59.296 97.6235 59.4728C97.2463 59.6496 96.8515 59.738 96.439 59.738C95.8851 59.738 95.4048 59.5936 94.9981 59.3049C94.5915 59.0102 94.3293 58.6714 94.2114 58.2883C94.0995 57.9053 94.0435 57.2806 94.0435 56.4143V50.925C94.0435 50.0233 94.0995 49.3839 94.2114 49.0068C94.3293 48.6296 94.5945 48.2996 95.007 48.0168C95.4195 47.728 95.9116 47.5836 96.4832 47.5836C96.9252 47.5836 97.3288 47.6632 97.6942 47.8223C98.0655 47.9814 98.4014 48.2201 98.7019 48.5383V45.2146H102.273ZM98.7019 50.7482C98.7019 50.318 98.6636 50.0292 98.587 49.8819C98.5163 49.7346 98.3719 49.6609 98.1539 49.6609C97.9417 49.6609 97.7973 49.7287 97.7207 49.8642C97.65 49.9939 97.6147 50.2885 97.6147 50.7482V56.4939C97.6147 56.9712 97.65 57.2865 97.7207 57.4397C97.7915 57.5871 97.927 57.6607 98.1274 57.6607C98.3572 57.6607 98.5104 57.5782 98.587 57.4132C98.6636 57.2423 98.7019 56.8298 98.7019 56.1757V50.7482Z" fill="#3538CD"/>
<rect width="118" height="1" transform="translate(0 79.5259)" fill="#EEEEEE"/>
<defs>
<clipPath id="clip0_79_1451">
<rect width="39.5" height="39.5" fill="white" transform="translate(39.25 0.0258789)"/>
</clipPath>
</defs>
</svg>
